<svg xmlns="http://www.w3.org/2000/svg" version="1.1" xmlns:xlink="http://www.w3.org/1999/xlink" xmlns:svgjs="http://svgjs.com/svgjs" width="100%" height="100%" viewBox="0 0 1000 600"><rect width="1000" height="600" x="0" y="0" fill="#122445"/><g><rect width="333.3333333333333" height="333.3333333333333" rx="13.333333333333334" ry="13.333333333333334" y="270.39596141554966" fill="#ffffff" transform="matrix(0.5036794881422235,0,0,0.5036794881422235,0,79.8605380503617)" x="248.17381286621094"/><path d="M372.9439348041308 512.0626345200146L372.9439348041308 512.0626345200146Q366.7693660416662 512.0626345200146 366.7693660416662 505.88806575755007L366.7693660416662 505.88806575755007L366.7693660416662 368.2048806301334Q366.7693660416662 362.0626394528126 372.9439348041308 362.0626394528126L372.9439348041308 362.0626394528126L456.86634583741875 362.0626394528126Q459.77582850036015 362.0626394528126 461.32755258726223 363.61436353971476Q462.91160425930815 365.1984152117606 462.91160425930815 368.2048806301334L462.91160425930815 368.2048806301334Q462.91160425930815 374.28246663716664 456.86634583741875 374.28246663716664L456.86634583741875 374.28246663716664L378.9891932260201 374.28246663716664L378.9891932260201 430.01522342506667L432.0710880321291 430.01522342506667Q438.2456567945937 430.01522342506667 438.2456567945937 436.060481846956L438.2456567945937 436.060481846956Q438.2456567945937 442.23505060942057 432.0710880321291 442.23505060942057L432.0710880321291 442.23505060942057L378.9891932260201 442.23505060942057L378.9891932260201 505.88806575755007Q378.9891932260201 512.0626345200146 372.9439348041308 512.0626345200146Z " fill="#122445" transform="matrix(0.5036794881422235,0,0,0.5036794881422235,0,79.8605380503617)"/><path d="M670.5785166586224 512.0626383347119L670.5785166586224 512.0626383347119Q664.8404834471485 512.0626383347119 664.8404834471485 506.32460512323803L664.8404834471485 506.32460512323803L664.8404834471485 378.37547712497997Q664.8404834471485 372.6674859722049 670.5785166586224 372.6674859722049L670.5785166586224 372.6674859722049L748.5677010407492 372.6674859722049Q751.2714863236426 372.6674859722049 752.7135051411858 374.10950478974803Q754.1855660174278 375.58156566599007 754.1855660174278 378.37547712497997L754.1855660174278 378.37547712497997Q754.1855660174278 384.0233841603574 748.5677010407492 384.0233841603574L748.5677010407492 384.0233841603574L676.196381635301 384.0233841603574L676.196381635301 435.81589335711647L725.5254420187572 435.81589335711647Q731.263475230231 435.81589335711647 731.263475230231 441.4337583337951L731.263475230231 441.4337583337951Q731.263475230231 447.171791545269 725.5254420187572 447.171791545269L725.5254420187572 447.171791545269L676.196381635301 447.171791545269L676.196381635301 506.32460512323803Q676.196381635301 512.0626383347119 670.5785166586224 512.0626383347119ZM806.0982434489822 512.0626383347119L793.9912937933593 512.0626383347119Q777.1076568046246 512.0626383347119 769.2666794842335 504.22166101432083Q761.4257021638425 496.3806836939299 761.4257021638425 479.49704670519515L761.4257021638425 479.49704670519515Q761.4257021638425 462.6434517751593 769.3267636016312 454.74239033737064Q777.2278250394197 446.841328899582 793.9912937933593 446.841328899582L793.9912937933593 446.841328899582L843.2001859420202 446.841328899582Q842.9598494724296 432.5713510176443 836.7411433217746 426.89340192356804Q830.5224371711197 421.2154528294918 815.6215760565069 421.2154528294918L815.6215760565069 421.2154528294918L803.0639955204017 421.2154528294918Q789.3347746950428 421.2154528294918 782.9358161921948 424.12953252327696Q776.5668997480459 427.0436122170621 775.064796813105 434.0734539525851L775.064796813105 434.0734539525851Q774.2837032869359 436.7772392354786 773.0519788802844 438.03900570082885Q771.820254473633 439.2707301074803 769.1164691907395 439.2707301074803L769.1164691907395 439.2707301074803Q766.2925156730507 439.2707301074803 764.7303286207123 437.7085430551419Q763.1681415683738 436.14635600280343 763.5887303901573 433.44257071990995L763.5887303901573 433.44257071990995Q765.0007071490015 421.0952845946965 774.7944182848157 415.4774196180179Q784.558087361931 409.8595546413393 803.0639955204017 409.8595546413393L803.0639955204017 409.8595546413393L815.6215760565069 409.8595546413393Q835.8398815608102 409.8595546413393 845.1829618161421 419.2026348966711Q854.5560841301726 428.5757572107018 854.5560841301726 448.79406271500505L854.5560841301726 448.79406271500505L854.5560841301726 506.32460512323803Q854.5560841301726 512.0626383347119 848.9081770947953 512.0626383347119L848.9081770947953 512.0626383347119Q843.2001859420202 512.0626383347119 843.2001859420202 506.32460512323803L843.2001859420202 506.32460512323803L843.2001859420202 495.6296322264594Q832.8056336322297 512.0626383347119 806.0982434489822 512.0626383347119L806.0982434489822 512.0626383347119ZM793.9912937933593 500.70674014655935L793.9912937933593 500.70674014655935L806.0982434489822 500.70674014655935Q816.5829219348691 500.70674014655935 824.5440674900553 498.39350162675055Q832.4751709865427 496.05022104824286 837.3419844957509 490.8529448933477Q842.2087980049591 485.6857107971513 843.2001859420202 477.03359789189227L843.2001859420202 477.03359789189227L843.2001859420202 458.1972270877345L793.9912937933593 458.1972270877345Q781.9744703138329 458.1972270877345 777.3780353329139 462.79366206865336Q772.7816003519949 467.39009704957226 772.7816003519949 479.49704670519515L772.7816003519949 479.49704670519515Q772.7816003519949 491.5138701847216 777.3780353329139 496.1103051656405Q781.9744703138329 500.70674014655935 793.9912937933593 500.70674014655935ZM934.7984229147107 512.0626383347119L934.7984229147107 512.0626383347119Q914.8805379973955 512.0626383347119 905.6876680355579 502.86976837287415Q896.49479807372 493.6768984110364 896.49479807372 473.8791817285165L896.49479807372 473.8791817285165L896.49479807372 421.2154528294918L883.6367969506266 421.2154528294918Q877.8987637391529 421.2154528294918 877.8987637391529 415.4774196180179L877.8987637391529 415.4774196180179Q877.8987637391529 409.8595546413393 883.6367969506266 409.8595546413393L883.6367969506266 409.8595546413393L896.49479807372 409.8595546413393L896.49479807372 386.6070012084556Q896.49479807372 380.86896799698167 902.1427051090975 380.86896799698167L902.1427051090975 380.86896799698167Q907.8506962618726 380.86896799698167 907.8506962618726 386.6070012084556L907.8506962618726 386.6070012084556L907.8506962618726 409.8595546413393L935.0087173256024 409.8595546413393Q940.6265823022809 409.8595546413393 940.6265823022809 415.4774196180179L940.6265823022809 415.4774196180179Q940.6265823022809 421.2154528294918 935.0087173256024 421.2154528294918L935.0087173256024 421.2154528294918L907.8506962618726 421.2154528294918L907.8506962618726 473.8791817285165Q907.8506962618726 489.0203793127199 913.7689818255394 494.8785807589891Q919.6572253305073 500.70674014655935 934.7984229147107 500.70674014655935L934.7984229147107 500.70674014655935Q937.9227970193874 500.70674014655935 939.2746896608342 502.11871690540374Q940.6265823022809 503.5306936642481 940.6265823022809 506.32460512323803L940.6265823022809 506.32460512323803Q940.6265823022809 512.0626383347119 934.7984229147107 512.0626383347119ZM976.3165480364746 512.0626383347119L976.3165480364746 512.0626383347119Q970.5785148250006 512.0626383347119 970.5785148250006 506.32460512323803L970.5785148250006 506.32460512323803L970.5785148250006 415.4774196180179Q970.5785148250006 409.8595546413393 976.3165480364746 409.8595546413393L976.3165480364746 409.8595546413393Q981.9344130131533 409.8595546413393 981.9344130131533 415.4774196180179L981.9344130131533 415.4774196180179L981.9344130131533 506.32460512323803Q981.9344130131533 512.0626383347119 976.3165480364746 512.0626383347119ZM978.71991273238 390.0618379588194L973.9432253992682 390.0618379588194Q966.432710724564 390.0618379588194 966.432710724564 382.4311550493201L966.432710724564 382.4311550493201L966.432710724564 377.5342994814131Q966.432710724564 370.1739951002031 973.9432253992682 370.1739951002031L973.9432253992682 370.1739951002031L978.71991273238 370.1739951002031Q986.0802171135899 370.1739951002031 986.0802171135899 377.5342994814131L986.0802171135899 377.5342994814131L986.0802171135899 382.4311550493201Q986.0802171135899 390.0618379588194 978.71991273238 390.0618379588194L978.71991273238 390.0618379588194ZM1028.1390992919326 512.0626383347119L1028.1390992919326 512.0626383347119Q1022.4010660804586 512.0626383347119 1022.4010660804586 506.32460512323803L1022.4010660804586 506.32460512323803L1022.4010660804586 367.68050422820136Q1022.4010660804586 362.0626392515228 1028.1390992919326 362.0626392515228L1028.1390992919326 362.0626392515228Q1033.756964268611 362.0626392515228 1033.756964268611 367.68050422820136L1033.756964268611 367.68050422820136L1033.756964268611 425.8719719278083Q1044.0313483436062 409.8595546413393 1070.9490329377454 409.8595546413393L1070.9490329377454 409.8595546413393L1077.0175287949064 409.8595546413393Q1097.2358342992097 409.8595546413393 1106.5789145545416 419.2026348966711Q1115.9520368685721 428.5757572107018 1115.9520368685721 448.79406271500505L1115.9520368685721 448.79406271500505L1115.9520368685721 506.32460512323803Q1115.9520368685721 512.0626383347119 1110.3341718918934 512.0626383347119L1110.3341718918934 512.0626383347119Q1104.5961386804197 512.0626383347119 1104.5961386804197 506.32460512323803L1104.5961386804197 506.32460512323803L1104.5961386804197 448.79406271500505Q1104.5961386804197 433.3224024851147 1098.4675587058612 427.28394868665265Q1092.3690207900013 421.2154528294918 1077.0175287949064 421.2154528294918L1077.0175287949064 421.2154528294918L1070.9490329377454 421.2154528294918Q1054.1855641838063 421.2154528294918 1044.572105400185 426.5028551604835Q1034.928604557865 431.8202995501739 1033.756964268611 443.05602950353114L1033.756964268611 443.05602950353114L1033.756964268611 506.32460512323803Q1033.756964268611 512.0626383347119 1028.1390992919326 512.0626383347119ZM1276.8873453181304 512.0626383347119L1250.9310066023531 512.0626383347119Q1227.438116699879 512.0626383347119 1216.622975568305 501.2474972031381Q1205.8078344367314 490.43235607156424 1205.8078344367314 466.9695082277888L1205.8078344367314 466.9695082277888L1205.8078344367314 417.76061607912794Q1205.8078344367314 394.057431765762 1216.5929335096062 383.3624588689834Q1227.3479905237825 372.6674859722049 1250.6906701327628 372.6674859722049L1250.6906701327628 372.6674859722049L1276.8873453181304 372.6674859722049Q1296.7751881767467 372.6674859722049 1306.508815195163 380.9290521143793Q1316.2424422135796 389.19061825655376 1317.2037880919418 407.48623200413283L1317.2037880919418 407.48623200413283Q1317.5342507376288 410.40031169791797 1316.0922319200856 411.9024146328588Q1314.6201710438434 413.4345596264984 1311.7962175261548 413.4345596264984L1311.7962175261548 413.4345596264984Q1306.3886469603679 413.4345596264984 1305.847889903789 407.6965264150245L1305.847889903789 407.6965264150245Q1305.0968384363189 394.2977682353525 1298.517627581278 389.160576197855Q1291.9083746675385 384.0233841603574 1276.8873453181304 384.0233841603574L1276.8873453181304 384.0233841603574L1250.6906701327628 384.0233841603574Q1238.2532578314526 384.0233841603574 1230.9229955089415 387.20784238243186Q1223.5626911277316 390.39230060450643 1220.3782329056571 397.812689103114Q1217.1637326248838 405.2030355430228 1217.1637326248838 417.76061607912794L1217.1637326248838 417.76061607912794L1217.1637326248838 466.9695082277888Q1217.1637326248838 479.49704670519515 1220.408274964356 486.8573510864051Q1223.652817303828 494.2176554676151 1231.013121685038 497.46219780708725Q1238.373426066248 500.70674014655935 1250.9310066023531 500.70674014655935L1250.9310066023531 500.70674014655935L1276.8873453181304 500.70674014655935Q1291.9083746675385 500.70674014655935 1298.517627581278 495.5695481090618Q1305.0968384363189 490.43235607156424 1305.847889903789 477.03359789189227L1305.847889903789 477.03359789189227Q1306.3886469603679 471.29556468041835 1311.7962175261548 471.29556468041835L1311.7962175261548 471.29556468041835Q1314.6201710438434 471.29556468041835 1316.0922319200856 472.8577517327568Q1317.5342507376288 474.4199387850952 1317.2037880919418 477.24389230278393L1317.2037880919418 477.24389230278393Q1316.2424422135796 495.5094639916642 1306.508815195163 503.80107219253745Q1296.7751881767467 512.0626383347119 1276.8873453181304 512.0626383347119L1276.8873453181304 512.0626383347119ZM1358.4214926267175 512.0626383347119L1358.4214926267175 512.0626383347119Q1352.6834594152435 512.0626383347119 1352.6834594152435 506.32460512323803L1352.6834594152435 506.32460512323803L1352.6834594152435 415.4774196180179Q1352.6834594152435 409.8595546413393 1358.4214926267175 409.8595546413393L1358.4214926267175 409.8595546413393Q1364.039357603396 409.8595546413393 1364.039357603396 415.4774196180179L1364.039357603396 415.4774196180179L1364.039357603396 506.32460512323803Q1364.039357603396 512.0626383347119 1358.4214926267175 512.0626383347119ZM1360.8248573226226 390.0618379588194L1356.048169989511 390.0618379588194Q1348.537655314807 390.0618379588194 1348.537655314807 382.4311550493201L1348.537655314807 382.4311550493201L1348.537655314807 377.5342994814131Q1348.537655314807 370.1739951002031 1356.048169989511 370.1739951002031L1356.048169989511 370.1739951002031L1360.8248573226226 370.1739951002031Q1368.1851617038326 370.1739951002031 1368.1851617038326 377.5342994814131L1368.1851617038326 377.5342994814131L1368.1851617038326 382.4311550493201Q1368.1851617038326 390.0618379588194 1360.8248573226226 390.0618379588194L1360.8248573226226 390.0618379588194ZM1458.34137985898 512.0626383347119L1440.6165652266784 512.0626383347119Q1420.3982597223753 512.0626383347119 1410.9950953496457 502.6594739619824Q1401.5618889182174 493.25630958925296 1401.5618889182174 473.0079620262509L1401.5618889182174 473.0079620262509L1401.5618889182174 448.58376830411333Q1401.5618889182174 428.3654627998101 1410.9350112322484 418.9923404857794Q1420.27809148758 409.64926023044757 1440.6165652266784 409.8595546413393L1440.6165652266784 409.8595546413393L1458.34137985898 409.8595546413393Q1474.2636709693527 409.8595546413393 1482.6454053463224 415.20704108972853Q1491.027139723292 420.55452753811784 1492.649410893028 432.0305939610656L1492.649410893028 432.0305939610656Q1492.9498314800162 434.94467365485076 1491.3876444276777 436.4768186484904Q1489.8254573753393 437.9789215834312 1487.0015038576505 437.9789215834312L1487.0015038576505 437.9789215834312Q1484.4178868095526 437.9789215834312 1483.1260782855034 436.62702894198446Q1481.8342697614544 435.2751363005378 1481.17334447008 432.69151925243955L1481.17334447008 432.69151925243955Q1479.9716621221276 426.412728984387 1474.8044280259312 423.79906987759Q1469.6071518710362 421.2154528294918 1458.34137985898 421.2154528294918L1458.34137985898 421.2154528294918L1440.6165652266784 421.2154528294918Q1425.144904996788 421.0051584186001 1419.0463670809283 427.01357015836334Q1412.91778710637 432.99193983942774 1412.91778710637 448.58376830411333L1412.91778710637 448.58376830411333L1412.91778710637 473.0079620262509Q1412.91778710637 488.47962225614117 1419.0463670809283 494.6082022306997Q1425.144904996788 500.70674014655935 1440.6165652266784 500.70674014655935L1440.6165652266784 500.70674014655935L1458.34137985898 500.70674014655935Q1469.6071518710362 500.70674014655935 1474.8044280259312 498.1231230984612Q1479.9716621221276 495.5094639916642 1481.17334447008 489.14054754751515L1481.17334447008 489.14054754751515Q1481.8342697614544 486.52688844071815 1483.1260782855034 485.1749957992714Q1484.4178868095526 483.8231031578247 1487.0015038576505 483.8231031578247L1487.0015038576505 483.8231031578247Q1489.8254573753393 483.8231031578247 1491.3876444276777 485.41533226886196Q1492.9498314800162 486.97751932120036 1492.649410893028 489.7714307801903L1492.649410893028 489.7714307801903Q1491.027139723292 501.2474972031381 1482.6454053463224 506.655067768925Q1474.2636709693527 512.0626383347119 1458.34137985898 512.0626383347119L1458.34137985898 512.0626383347119ZM1615.1609262668005 465.34723705805277L1536.4507324759022 465.34723705805277L1536.4507324759022 473.24829849584137Q1536.4507324759022 488.47962225614117 1542.5492703917619 494.6082022306997Q1548.6478083076215 500.70674014655935 1564.1194685375117 500.70674014655935L1564.1194685375117 500.70674014655935L1581.8743252285121 500.70674014655935Q1595.4833778190757 500.70674014655935 1601.702083969731 497.1918192787979Q1607.9207901203856 493.6768984110364 1609.1224724683384 485.02478550577734L1609.1224724683384 485.02478550577734Q1609.5430612901218 482.32100022288387 1610.8949539315684 480.90902346403954Q1612.246846573015 479.49704670519515 1615.0708000907039 479.49704670519515L1615.0708000907039 479.49704670519515Q1617.8647115496938 479.49704670519515 1619.3367724259358 481.08927581623243Q1620.8088333021778 482.6514628685709 1620.4783706564908 485.4453743275608L1620.4783706564908 485.4453743275608Q1619.0663938976465 499.0844689768233 1609.5430612901218 505.5735536557676Q1600.019728682597 512.0626383347119 1581.8743252285121 512.0626383347119L1581.8743252285121 512.0626383347119L1564.1194685375117 512.0626383347119Q1543.9011630332084 512.0626383347119 1534.497998660479 502.71955807938Q1525.0948342877493 493.3464357653494 1525.0948342877493 473.24829849584137L1525.0948342877493 473.24829849584137L1525.0948342877493 448.79406271500505Q1525.0948342877493 428.3654627998101 1534.497998660479 418.9923404857794Q1543.9011630332084 409.64926023044757 1564.1194685375117 409.8595546413393L1564.1194685375117 409.8595546413393L1581.8743252285121 409.8595546413393Q1602.0926307328152 409.8595546413393 1611.435710988147 419.2026348966711Q1620.8088333021778 428.5757572107018 1620.8088333021778 448.79406271500505L1620.8088333021778 448.79406271500505L1620.8088333021778 459.60920384657885Q1620.8088333021778 465.34723705805277 1615.1609262668005 465.34723705805277L1615.1609262668005 465.34723705805277ZM1581.8743252285121 421.2154528294918L1564.1194685375117 421.2154528294918Q1548.6478083076215 421.0051584186001 1542.5492703917619 427.10369633445976Q1536.4507324759022 433.2322763090183 1536.4507324759022 448.79406271500505L1536.4507324759022 448.79406271500505L1536.4507324759022 453.99133886990023L1609.4529351140254 453.99133886990023L1609.4529351140254 448.79406271500505Q1609.4529351140254 433.3224024851147 1603.3844392568647 427.28394868665265Q1597.3159433997037 421.2154528294918 1581.8743252285121 421.2154528294918L1581.8743252285121 421.2154528294918ZM1664.069397828473 512.0626383347119L1664.069397828473 512.0626383347119Q1658.3313646169993 512.0626383347119 1658.3313646169993 506.32460512323803L1658.3313646169993 506.32460512323803L1658.3313646169993 367.68050422820136Q1658.3313646169993 362.0626392515228 1664.069397828473 362.0626392515228L1664.069397828473 362.0626392515228Q1669.6872628051517 362.0626392515228 1669.6872628051517 367.68050422820136L1669.6872628051517 367.68050422820136L1669.6872628051517 457.56634385505936L1724.6341881652863 410.40031169791797Q1728.7199081483257 406.73518053666237 1732.5052075443766 410.94106875449665L1732.5052075443766 410.94106875449665Q1736.2003807643307 415.14695697233094 1731.9644504877976 418.9322563683818L1731.9644504877976 418.9322563683818L1692.188764770565 453.24028740242983L1735.4493292968602 502.32901131629546Q1739.2346286929112 506.5348995341297 1734.9085722402817 510.3201989301806L1734.9085722402817 510.3201989301806Q1730.7928101985437 514.0153721501349 1727.0075108024928 509.77944187360185L1727.0075108024928 509.77944187360185L1683.4164836305106 460.6907179597363L1669.6872628051517 472.4672049696722L1669.6872628051517 506.32460512323803Q1669.6872628051517 512.0626383347119 1664.069397828473 512.0626383347119Z " fill="#ffffff" transform="matrix(0.5036794881422235,0,0,0.5036794881422235,0,79.8605380503617)"/></g></svg>